<svg width="1964" height="528" viewBox="0 0 1964 528" fill="none" xmlns="http://www.w3.org/2000/svg">
<rect width="1964" height="528" rx="167" fill="white"/>
<path d="M291 122.5C368.539 122.5 431.5 185.57 431.5 263.5C431.5 341.43 368.539 404.5 291 404.5C213.461 404.5 150.5 341.43 150.5 263.5C150.5 185.57 213.461 122.5 291 122.5Z" fill="white" stroke="black" stroke-width="39"/>
<path d="M973 122.5C1050.54 122.5 1113.5 185.57 1113.5 263.5C1113.5 341.43 1050.54 404.5 973 404.5C895.461 404.5 832.5 341.43 832.5 263.5C832.5 185.57 895.461 122.5 973 122.5Z" fill="white" stroke="black" stroke-width="39"/>
<rect x="481" y="233" width="35" height="191" fill="black"/>
<rect x="516" y="389" width="95" height="35" fill="black"/>
<rect x="611" y="233" width="35" height="191" fill="black"/>
<rect x="715" y="198" width="35" height="226" fill="black"/>
<rect x="680" y="233" width="105" height="35" fill="black"/>
<rect x="750" y="389" width="35" height="35" fill="black"/>
<path d="M270.449 185.068C279.782 169.597 302.218 169.597 311.551 185.068L317.492 194.917C321.751 201.978 329.337 206.358 337.582 206.516L349.081 206.737C367.146 207.083 378.364 226.514 369.632 242.332L364.073 252.401C360.088 259.62 360.088 268.38 364.073 275.599L369.632 285.668C378.364 301.486 367.146 320.917 349.081 321.263L337.582 321.484C329.337 321.642 321.751 326.022 317.492 333.083L311.551 342.932C302.218 358.403 279.782 358.403 270.449 342.932L264.508 333.083C260.249 326.022 252.663 321.642 244.418 321.484L232.919 321.263C214.854 320.917 203.636 301.486 212.368 285.668L217.927 275.599C221.912 268.38 221.912 259.62 217.927 252.401L212.368 242.332C203.636 226.514 214.854 207.083 232.919 206.737L244.418 206.516C252.663 206.358 260.249 201.978 264.508 194.917L270.449 185.068Z" fill="black"/>
<path d="M953.002 181.141C962.495 166.833 983.505 166.833 992.998 181.141L1007.24 202.611C1010.43 207.418 1015.25 210.915 1020.8 212.462L1045.62 219.376C1062.17 223.983 1068.66 243.965 1057.98 257.415L1041.97 277.597C1038.38 282.115 1036.54 287.774 1036.79 293.537L1037.88 319.279C1038.61 336.435 1021.61 348.784 1005.52 342.789L981.38 333.792C975.975 331.778 970.025 331.778 964.62 333.792L940.476 342.789C924.385 348.784 907.388 336.435 908.118 319.279L909.213 293.537C909.458 287.774 907.62 282.115 904.034 277.597L888.017 257.415C877.342 243.965 883.835 223.983 900.377 219.376L925.198 212.462C930.754 210.915 935.568 207.418 938.757 202.611L953.002 181.141Z" fill="black"/>
<path d="M1315.23 250.25H1188.77L1252 383.245L1315.23 250.25Z" stroke="black" stroke-width="35"/>
<path d="M1459.23 250.25H1332.77L1396 383.245L1459.23 250.25Z" stroke="black" stroke-width="35"/>
<rect width="35" height="226" transform="matrix(-1 0 0 1 1556 198)" fill="black"/>
<rect x="1521" y="128" width="35" height="35" fill="black"/>
<rect width="35" height="226" transform="matrix(-1 0 0 1 1790 198)" fill="black"/>
<rect x="1755" y="128" width="35" height="35" fill="black"/>
<rect width="35" height="296" transform="matrix(-1 0 0 1 1625 128)" fill="black"/>
<path d="M1720.5 250.5C1699.81 250.5 1679.97 258.718 1665.35 273.346C1650.72 287.974 1642.5 307.813 1642.5 328.5C1642.5 349.187 1650.72 369.026 1665.35 383.654C1679.97 398.282 1699.81 406.5 1720.5 406.5" stroke="black" stroke-width="35"/>
<path d="M1252 343L1317.82 205.75H1186.18L1252 343Z" fill="white"/>
<path d="M1396 343L1461.82 205.75H1330.18L1396 343Z" fill="white"/>
</svg>
